# xmcd
# Track frame offsets:
# 150
# 13574
# 30051
# 48343
# 66461
# 81453
# 97402
# 114853
# 132681
# 148454
# 164134
# 178585
# 197148
# 213607
#
# Disc length: 3081 seconds
# Revision: 2
# Processed by: cddbd v1.5.1PL0 Copyright (c) Steve Scherf et al.
# Submitted via: VisiTrax 2.9.10.228 - For more info visit www.synapsa.com
#
DISCID=da0c070e
DTITLE=Various Artist - CDX 348 July 2004 Disc#1
DYEAR=2004
DGENRE=Country
TTITLE0=Kevin Fowler - Ain't Drinkin' Anymore
TTITLE1=Darryl Worley - Awful Beautiful Life
TTITLE2=Sugarland - Baby Girl
TTITLE3=George Strait - I Hate Everything
TTITLE4=Clay Walker - Jesus Was A Country Boy
TTITLE5=Lonestar - Mr. Mom
TTITLE6=Clint Black - My Imagination
TTITLE7=Emerson Drive - November
TTITLE8=Blake Shelton - Some Beach
TTITLE9=Brooks and Dunn - Thats What It's All About
TTITLE10=Alan Jackson - Too Much Of A Good Thing Is A Good Thing
TTITLE11=Selah - You Raise Me Up
TTITLE12=Montgomery Gentry - You Do Your Thing
TTITLE13=Lonestar - County Fair
EXTD=
EXTT0=
EXTT1=
EXTT2=
EXTT3=
EXTT4=
EXTT5=
EXTT6=
EXTT7=
EXTT8=
EXTT9=
EXTT10=
EXTT11=
EXTT12=
EXTT13=
PLAYORDER=
